<svg width="20" height="20" viewBox="0 0 20 20" fill="none" xmlns="http://www.w3.org/2000/svg">
  <path
    d="M16.6667 8.33329H3.33341C2.41294 8.33329 1.66675 9.07948 1.66675 9.99996V14.1666C1.66675 15.0871 2.41294 15.8333 3.33341 15.8333H16.6667C17.5872 15.8333 18.3334 15.0871 18.3334 14.1666V9.99996C18.3334 9.07948 17.5872 8.33329 16.6667 8.33329Z"
    stroke="#141718"
    strokeWidth="1.5"
    strokeLinecap="round"
    strokeLinejoin="round"
  />
  <path
    d="M5.83341 8.33333V5.00001C5.83341 4.11596 6.18469 3.26809 6.8098 2.64298C7.43491 2.01786 8.28277 1.66658 9.16683 1.66667C10.0506 1.66677 10.8979 2.0181 11.5226 2.64318C12.1473 3.26825 12.4983 4.11598 12.4984 5.00001V8.33333"
    stroke="#141718"
    strokeWidth="1.5"
    strokeLinecap="round"
    strokeLinejoin="round"
  />
  <path
    d="M10 11.6667V12.5"
    stroke="#141718"
    strokeWidth="1.5"
    strokeLinecap="round"
    strokeLinejoin="round"
  />
</svg> 
