<svg width="18" height="18" viewBox="0 0 18 18" fill="none" xmlns="http://www.w3.org/2000/svg">
  <path
    d="M0 0H4V4H0V0Z"
    fill="#6C7275"
    transform="translate(1.5 1.5)"
  />
  <path
    d="M0 0H4V4H0V0Z"
    fill="#6C7275"
    transform="translate(6.5 1.5)"
  />
  <path
    d="M0 0H4V4H0V0Z"
    fill="#6C7275"
    transform="translate(11.5 1.5)"
  />
  <path
    d="M0 0H4V4H0V0Z"
    fill="#6C7275"
    transform="translate(1.5 6.5)"
  />
  <path
    d="M0 0H4V4H0V0Z"
    fill="#6C7275"
    transform="translate(6.5 6.5)"
  />
  <path
    d="M0 0H4V4H0V0Z"
    fill="#6C7275"
    transform="translate(11.5 6.5)"
  />
  <path
    d="M0 0H4V4H0V0Z"
    fill="#6C7275"
    transform="translate(1.5 11.5)"
  />
  <path
    d="M0 0H4V4H0V0Z"
    fill="#6C7275"
    transform="translate(6.5 11.5)"
  />
  <path
    d="M0 0H4V4H0V0Z"
    fill="#6C7275"
    transform="translate(11.5 11.5)"
  />
</svg> 
